<?xml version="1.0" standalone="no"?>
<!DOCTYPE svg PUBLIC "-//W3C//DTD SVG 20010904//EN"
 "http://www.w3.org/TR/2001/REC-SVG-20010904/DTD/svg10.dtd">
<svg version="1.0" xmlns="http://www.w3.org/2000/svg"
 width="2224.000000pt" height="303.000000pt" viewBox="0 0 2224.000000 303.000000"
 preserveAspectRatio="xMidYMid meet">

<g transform="translate(0.000000,303.000000) scale(0.100000,-0.100000)"
fill="#000000" stroke="none">
<path d="M11904 2328 c-422 -29 -761 -275 -875 -638 -21 -66 -24 -94 -24 -240
0 -145 3 -174 23 -240 92 -293 309 -498 617 -584 124 -35 216 -45 380 -41 203
4 378 45 562 130 l73 34 0 185 0 186 -32 -14 c-18 -8 -78 -34 -133 -59 -259
-116 -448 -141 -655 -86 -106 28 -185 74 -261 149 -165 163 -195 414 -73 606
185 293 619 348 1047 133 43 -21 80 -39 82 -39 3 0 5 85 5 188 l0 189 -77 36
c-188 88 -403 122 -659 105z"/>
<path d="M1930 2315 c-236 -48 -399 -187 -439 -373 -35 -166 13 -328 132 -444
77 -76 166 -124 369 -202 197 -76 237 -93 281 -123 114 -79 98 -210 -32 -260
-62 -24 -240 -23 -331 1 -95 26 -255 103 -374 182 l-27 17 3 -184 3 -184 75
-37 c88 -44 235 -92 335 -110 107 -19 345 -16 430 6 268 70 421 239 428 473 1
40 3 73 5 73 2 0 13 -21 24 -47 65 -148 200 -296 348 -382 293 -171 727 -186
1097 -37 48 19 89 34 91 32 1 -2 -6 -26 -17 -55 l-21 -51 224 0 224 0 28 73
c15 39 43 114 63 165 l36 94 375 -1 c206 0 378 -1 381 -1 3 0 37 -74 74 -165
l69 -165 982 0 982 0 28 72 c15 40 43 115 63 166 l36 93 380 1 380 0 69 -166
70 -166 418 0 418 0 0 345 0 345 71 0 c40 0 90 -5 111 -12 88 -26 165 -127
262 -338 26 -58 71 -157 100 -220 l53 -115 231 -3 c128 -1 232 -1 232 2 0 2
-25 57 -56 122 -31 66 -83 178 -115 251 -100 222 -170 333 -244 385 -41 29
-44 33 -25 40 45 17 143 92 179 138 102 129 119 327 41 480 -59 115 -158 198
-297 247 l-78 28 -448 3 -448 3 1 -783 c0 -431 1 -787 0 -793 0 -10 -118 252
-510 1138 l-194 437 -247 0 -247 0 -217 -542 c-120 -299 -245 -612 -279 -695
l-61 -153 -402 0 -403 0 0 695 0 695 -215 0 -215 0 0 -772 c0 -425 0 -782 0
-793 0 -23 -21 21 -345 755 -130 294 -264 597 -298 673 l-61 137 -247 0 -246
0 -294 -731 -294 -732 -3 135 -3 136 -143 -64 c-234 -103 -374 -132 -547 -114
-122 12 -210 40 -287 89 -163 106 -244 248 -243 431 0 239 156 426 414 498 96
26 325 23 437 -7 87 -23 214 -72 301 -117 l49 -24 0 188 0 189 -87 40 c-161
74 -306 103 -517 103 -251 0 -438 -45 -607 -146 -99 -58 -239 -191 -297 -282
-94 -147 -139 -319 -128 -496 l5 -100 -33 50 c-83 123 -196 194 -496 311 -248
97 -300 134 -300 215 0 35 6 47 39 78 47 45 100 60 210 60 124 0 289 -41 461
-115 l80 -34 0 165 0 165 -44 19 c-81 34 -231 78 -321 94 -109 19 -324 20
-415 1z m7979 -326 c102 -22 154 -85 153 -185 0 -73 -27 -122 -87 -159 -48
-30 -51 -30 -207 -33 l-158 -4 0 196 0 196 125 0 c68 0 147 -5 174 -11z
m-1534 -419 c70 -168 129 -311 132 -317 4 -10 -51 -13 -257 -13 -205 0 -261 3
-258 13 75 215 244 644 249 635 4 -7 64 -150 134 -318z m-2990 0 c70 -168 129
-311 132 -317 4 -10 -51 -13 -256 -13 -144 0 -261 2 -261 5 0 3 50 139 111
302 62 164 116 309 121 322 5 14 12 21 18 15 4 -5 65 -146 135 -314z"/>
<path d="M18851 2319 c-88 -15 -185 -53 -261 -104 -132 -88 -200 -215 -200
-374 0 -147 38 -242 139 -341 79 -79 167 -127 384 -210 207 -79 261 -106 301
-150 45 -50 54 -97 30 -147 -37 -75 -135 -110 -280 -100 -150 11 -269 53 -446
158 l-98 58 0 -183 0 -183 78 -36 c194 -92 331 -122 547 -121 144 1 169 4 250
28 114 35 174 67 247 135 104 95 148 201 148 351 0 260 -128 398 -505 544
-276 107 -332 141 -355 212 -17 51 11 101 76 134 44 23 59 25 174 25 159 -1
269 -29 503 -129 29 -13 38 -14 36 -4 -1 7 -1 37 0 66 l1 52 300 0 300 0 0
-695 0 -695 210 0 210 0 0 695 0 695 310 0 310 0 0 155 0 155 -830 0 -830 0 0
-48 0 -49 -127 43 c-71 23 -170 49 -222 58 -102 17 -310 20 -400 5z"/>
<path d="M12750 1460 l0 -850 210 0 210 0 0 345 0 345 425 0 425 0 0 -345 0
-345 213 2 212 3 3 848 2 847 -215 0 -215 0 0 -340 0 -340 -425 0 -425 0 0
340 0 340 -210 0 -210 0 0 -850z"/>
<path d="M14580 1460 l0 -850 630 0 630 0 0 155 0 155 -417 0 -418 0 2 182 c2
101 3 193 3 206 l0 22 385 0 385 0 0 155 0 155 -383 0 c-211 0 -386 2 -388 4
-2 2 -3 83 -1 180 l3 176 404 0 405 0 0 155 0 155 -620 0 -620 0 0 -850z"/>
<path d="M15920 1460 l0 -850 210 0 210 0 0 525 c0 289 3 525 8 524 4 0 106
-116 228 -257 204 -239 223 -257 256 -260 35 -3 38 0 259 257 123 143 227 260
232 260 4 1 7 -235 7 -524 l0 -525 210 0 210 0 0 850 0 850 -184 0 -185 0
-257 -297 c-141 -164 -265 -306 -274 -316 -16 -17 -30 -4 -290 297 l-273 316
-183 0 -184 0 0 -850z"/>
<path d="M17890 1460 l0 -850 213 0 212 0 -3 850 -2 850 -210 0 -210 0 0 -850z"/>
</g>
</svg>
